<svg width="126" height="118" viewBox="0 0 126 118" fill="none" xmlns="http://www.w3.org/2000/svg">
<g filter="url(#filter0_f_203_514)">
<circle cx="61.2484" cy="69.5614" r="10.4437" fill="#EE8F09"/>
</g>
<circle cx="61.2484" cy="69.5614" r="10.4437" fill="#EE8F09"/>
<path d="M75.1587 85.7251C78.2831 83.4672 80.5472 80.2142 81.5793 76.5001L84.9987 64.1948C89.6321 47.5208 113.313 47.6303 117.792 64.3465L124.594 89.7325C127.023 98.7994 121.643 108.119 112.576 110.549L87.7308 117.206C69.5019 122.09 58.0808 98.0668 73.3767 87.013L75.1587 85.7251Z" fill="white"/>
<path d="M38.3341 69.3562C39.094 73.1355 41.116 76.5442 44.0684 79.0229L53.8497 87.2349C67.1038 98.3624 57.1893 119.868 40.1201 117.016L14.1979 112.684C4.93946 111.137 -1.31191 102.378 0.23506 93.1195L4.474 67.7499C7.58415 49.1361 34.1806 48.6991 37.9007 67.2007L38.3341 69.3562Z" fill="white"/>
<path d="M69.857 49.7831C66.3375 48.2103 62.3879 47.8806 58.6565 48.8482L46.2938 52.0539C29.542 56.3977 17.7727 35.8488 29.9956 23.5975L48.5579 4.99206C55.1876 -1.65311 65.9491 -1.6656 72.5942 4.96416L90.803 23.1307C104.163 36.4596 89.0941 58.3798 71.8643 50.6801L69.857 49.7831Z" fill="white"/>
<defs>
<filter id="filter0_f_203_514" x="24.6954" y="33.0083" width="73.1061" height="73.1061" filterUnits="userSpaceOnUse" color-interpolation-filters="sRGB">
<feFlood flood-opacity="0" result="BackgroundImageFix"/>
<feBlend mode="normal" in="SourceGraphic" in2="BackgroundImageFix" result="shape"/>
<feGaussianBlur stdDeviation="13.0547" result="effect1_foregroundBlur_203_514"/>
</filter>
</defs>
</svg>
